0
SECTION
2
HEADER
9
$INSUNITS
70
4
9
$ACADVER
1
AC1014
9
$HANDSEED
5
FFFF
0
ENDSEC
0
SECTION
2
TABLES
0
TABLE
2
VPORT
5
8
100
AcDbSymbolTable
0
ENDTAB
0
TABLE
2
LTYPE
5
5
100
AcDbSymbolTable
0
LTYPE
5
14
100
AcDbSymbolTableRecord
100
AcDbLinetypeTableRecord
2
BYBLOCK
70
0
0
LTYPE
5
15
100
AcDbSymbolTableRecord
100
AcDbLinetypeTableRecord
2
BYLAYER
70
0
0
LTYPE
5
16
100
AcDbSymbolTableRecord
100
AcDbLinetypeTableRecord
2
DASHED
70
0
3
Dashed __ __ __ __ __ __ __ __ __ __ __ __ __ _
72
65
73
2
40
0.75
49
0.5
74
0
49
-0.25
74
0
0
ENDTAB
0
TABLE
2
LAYER
5
2
100
AcDbSymbolTable
70
2
0
LAYER
5
50
100
AcDbSymbolTableRecord
100
AcDbLayerTableRecord
2
0
70
0
62
7
6
CONTINUOUS
0
ENDTAB
0
TABLE
2
STYLE
5
3
100
AcDbSymbolTable
70
1
0
STYLE
5
11
100
AcDbSymbolTableRecord
100
AcDbTextStyleTableRecord
2
STANDARD
70
0
0
ENDTAB
0
TABLE
2
VIEW
5
6
100
AcDbSymbolTable
70
0
0
ENDTAB
0
TABLE
2
UCS
5
7
100
AcDbSymbolTable
70
0
0
ENDTAB
0
TABLE
2
APPID
5
9
100
AcDbSymbolTable
70
2
0
APPID
5
12
100
AcDbSymbolTableRecord
100
AcDbRegAppTableRecord
2
ACAD
70
0
0
ENDTAB
0
TABLE
2
DIMSTYLE
5
A
100
AcDbSymbolTable
70
1
0
ENDTAB
0
TABLE
2
BLOCK_RECORD
5
1
100
AcDbSymbolTable
70
1
0
BLOCK_RECORD
5
1F
100
AcDbSymbolTableRecord
100
AcDbBlockTableRecord
2
*MODEL_SPACE
0
BLOCK_RECORD
5
1B
100
AcDbSymbolTableRecord
100
AcDbBlockTableRecord
2
*PAPER_SPACE
0
ENDTAB
0
ENDSEC
0
SECTION
2
BLOCKS
0
BLOCK
5
20
100
AcDbEntity
100
AcDbBlockBegin
2
*MODEL_SPACE
0
ENDBLK
5
21
100
AcDbEntity
100
AcDbBlockEnd
0
BLOCK
5
1C
100
AcDbEntity
100
AcDbBlockBegin
2
*PAPER_SPACE
0
ENDBLK
5
1D
100
AcDbEntity
100
AcDbBlockEnd
0
ENDSEC
0
SECTION
2
ENTITIES
0
LINE
5
100
100
AcDbEntity
8
0
100
AcDbLine
10
300.09999999999997
20
425
30
0
11
400
21
425
31
0
0
LINE
5
101
100
AcDbEntity
8
0
100
AcDbLine
10
475
20
600
30
0
11
500
21
600
31
0
0
LINE
5
102
100
AcDbEntity
8
0
100
AcDbLine
10
475
20
650.10000000000002
30
0
11
500
21
650.10000000000002
31
0
0
LINE
5
103
100
AcDbEntity
8
0
100
AcDbLine
10
475
20
500.09999999999997
30
0
11
475
21
600
31
0
0
LINE
5
104
100
AcDbEntity
8
0
100
AcDbLine
10
300.09999999999997
20
425
30
0
11
300.09999999999997
21
400
31
0
0
LINE
5
105
100
AcDbEntity
8
0
100
AcDbLine
10
475
20
650.10000000000002
30
0
11
475
21
700
31
0
0
LINE
5
106
100
AcDbEntity
8
0
100
AcDbLine
10
350
20
800
30
0
11
350
21
700
31
0
0
LINE
5
107
100
AcDbEntity
8
0
100
AcDbLine
10
400
20
425
30
0
11
400
21
400
31
0
0
LINE
5
108
100
AcDbEntity
8
0
100
AcDbLine
10
475
20
500.09999999999997
30
0
11
500
21
500.09999999999997
31
0
0
LINE
5
109
100
AcDbEntity
8
0
100
AcDbLine
10
350
20
550
30
0
11
350
21
450
31
0
0
LINE
5
110
100
AcDbEntity
8
0
100
AcDbLine
10
475
20
700
30
0
11
500
21
700
31
0
0
LINE
5
111
100
AcDbEntity
8
0
100
AcDbLine
10
1.7763568394002505e-14
20
425
30
0
11
1.7763568394002505e-14
21
400
31
0
0
LWPOLYLINE
5
112
100
AcDbEntity
8
0
100
AcDbPolyline
90
2
70
1
43
0.0
10
-200
20
425
10
-200
20
400
0
LINE
5
113
100
AcDbEntity
8
0
100
AcDbLine
10
100.10000000000002
20
425
30
0
11
100.10000000000002
21
400
31
0
0
LINE
5
114
100
AcDbEntity
8
0
100
AcDbLine
10
200
20
425
30
0
11
200
21
400
31
0
0
LWPOLYLINE
5
115
100
AcDbEntity
8
0
100
AcDbPolyline
90
4
70
1
43
0.0
10
-150
20
460
10
-80
20
460
10
-80
20
480
10
-150
20
480
0
LWPOLYLINE
5
116
100
AcDbEntity
8
0
100
AcDbPolyline
90
4
70
1
43
0.0
10
-80
20
560
10
-80
20
540
10
-150
20
540
10
-150
20
560
0
LINE
5
117
100
AcDbEntity
8
0
100
AcDbLine
10
-150
20
560
30
0
11
250
21
560
31
0
0
LWPOLYLINE
5
118
100
AcDbEntity
8
0
100
AcDbPolyline
90
4
70
1
43
0.0
10
-150
20
500
10
-80
20
500
10
-80
20
520
10
-150
20
520
0
LWPOLYLINE
5
119
100
AcDbEntity
8
0
100
AcDbPolyline
90
4
70
1
43
0.0
10
-330
20
560
10
-330
20
630
10
-310
20
630
10
-310
20
560
0
LINE
5
120
100
AcDbEntity
8
0
100
AcDbLine
10
-299.90000000000003
20
425
30
0
11
-299.90000000000003
21
400
31
0
0
LWPOLYLINE
5
121
100
AcDbEntity
8
0
100
AcDbPolyline
90
4
70
1
43
0.0
10
-80
20
420
10
-80
20
440
10
-150
20
440
10
-150
20
420
0
LINE
5
122
100
AcDbEntity
8
0
100
AcDbLine
10
-99.900000000000006
20
425
30
0
11
-99.900000000000006
21
400
31
0
0
LWPOLYLINE
5
123
100
AcDbEntity
8
0
100
AcDbPolyline
90
4
70
1
43
0.0
10
-150
20
630
10
-150
20
560
10
-170
20
560
10
-170
20
630
0
LINE
5
124
100
AcDbEntity
8
0
100
AcDbLine
10
-99.900000000000006
20
425
30
0
11
1.7763568394002505e-14
21
425
31
0
0
LINE
5
125
100
AcDbEntity
8
0
100
AcDbLine
10
100.10000000000002
20
425
30
0
11
200
21
425
31
0
0
LINE
5
126
100
AcDbEntity
8
0
100
AcDbLine
10
50
20
460
30
0
11
-50
21
460
31
0
0
LINE
5
127
100
AcDbEntity
8
0
100
AcDbLine
10
-150
20
560
30
0
11
-150
21
1000
31
0
0
LWPOLYLINE
5
128
100
AcDbEntity
8
0
100
AcDbPolyline
90
4
70
1
43
0.0
10
-230
20
560
10
-250
20
560
10
-250
20
630
10
-230
20
630
0
LWPOLYLINE
5
129
100
AcDbEntity
8
0
100
AcDbPolyline
90
4
70
1
43
0.0
10
-190
20
630
10
-190
20
560
10
-210
20
560
10
-210
20
630
0
LINE
5
130
100
AcDbEntity
8
0
100
AcDbLine
10
250
20
1000
30
0
11
250
21
550
31
0
0
LWPOLYLINE
5
131
100
AcDbEntity
8
0
100
AcDbPolyline
90
4
70
1
43
0.0
10
-290
20
560
10
-290
20
630
10
-270
20
630
10
-270
20
560
0
LINE
5
132
100
AcDbEntity
8
0
100
AcDbLine
10
250
20
460
30
0
11
150
21
460
31
0
0
LINE
5
133
100
AcDbEntity
8
0
100
AcDbLine
10
-299.90000000000003
20
425
30
0
11
-200
21
425
31
0
0
LINE
5
134
100
AcDbEntity
8
0
100
AcDbLine
10
-250
20
975
30
0
11
-250
21
875
31
0
0
LINE
5
135
100
AcDbEntity
8
0
100
AcDbLine
10
-250
20
800
30
0
11
-250
21
700
31
0
0
LINE
5
136
100
AcDbEntity
8
0
100
AcDbLine
10
350
20
975
30
0
11
350
21
875
31
0
0
LINE
5
137
100
AcDbEntity
8
0
100
AcDbLine
10
450
20
1000
30
0
11
450
21
400
31
0
0
LINE
5
138
100
AcDbEntity
8
0
100
AcDbLine
10
-350
20
1000
30
0
11
-350
21
400
31
0
0
LWPOLYLINE
5
139
100
AcDbEntity
8
0
100
AcDbPolyline
90
4
70
1
43
0.0
10
-400
20
400
10
-400
20
1000
10
500
20
1000
10
500
20
400
0
ENDSEC
0
SECTION
2
OBJECTS
0
DICTIONARY
5
C
100
AcDbDictionary
3
ACAD_GROUP
350
D
3
ACAD_MLINESTYLE
350
17
0
DICTIONARY
5
D
100
AcDbDictionary
0
DICTIONARY
5
1A
330
C
100
AcDbDictionary
0
DICTIONARY
5
17
100
AcDbDictionary
0
ENDSEC
0
EOF
