0
SECTION
2
HEADER
9
$INSUNITS
70
4
9
$ACADVER
1
AC1014
9
$HANDSEED
5
FFFF
0
ENDSEC
0
SECTION
2
TABLES
0
TABLE
2
VPORT
5
8
100
AcDbSymbolTable
0
ENDTAB
0
TABLE
2
LTYPE
5
5
100
AcDbSymbolTable
0
LTYPE
5
14
100
AcDbSymbolTableRecord
100
AcDbLinetypeTableRecord
2
BYBLOCK
70
0
0
LTYPE
5
15
100
AcDbSymbolTableRecord
100
AcDbLinetypeTableRecord
2
BYLAYER
70
0
0
LTYPE
5
16
100
AcDbSymbolTableRecord
100
AcDbLinetypeTableRecord
2
DASHED
70
0
3
Dashed __ __ __ __ __ __ __ __ __ __ __ __ __ _
72
65
73
2
40
0.75
49
0.5
74
0
49
-0.25
74
0
0
ENDTAB
0
TABLE
2
LAYER
5
2
100
AcDbSymbolTable
70
2
0
LAYER
5
50
100
AcDbSymbolTableRecord
100
AcDbLayerTableRecord
2
0
70
0
62
7
6
CONTINUOUS
0
ENDTAB
0
TABLE
2
STYLE
5
3
100
AcDbSymbolTable
70
1
0
STYLE
5
11
100
AcDbSymbolTableRecord
100
AcDbTextStyleTableRecord
2
STANDARD
70
0
0
ENDTAB
0
TABLE
2
VIEW
5
6
100
AcDbSymbolTable
70
0
0
ENDTAB
0
TABLE
2
UCS
5
7
100
AcDbSymbolTable
70
0
0
ENDTAB
0
TABLE
2
APPID
5
9
100
AcDbSymbolTable
70
2
0
APPID
5
12
100
AcDbSymbolTableRecord
100
AcDbRegAppTableRecord
2
ACAD
70
0
0
ENDTAB
0
TABLE
2
DIMSTYLE
5
A
100
AcDbSymbolTable
70
1
0
ENDTAB
0
TABLE
2
BLOCK_RECORD
5
1
100
AcDbSymbolTable
70
1
0
BLOCK_RECORD
5
1F
100
AcDbSymbolTableRecord
100
AcDbBlockTableRecord
2
*MODEL_SPACE
0
BLOCK_RECORD
5
1B
100
AcDbSymbolTableRecord
100
AcDbBlockTableRecord
2
*PAPER_SPACE
0
ENDTAB
0
ENDSEC
0
SECTION
2
BLOCKS
0
BLOCK
5
20
100
AcDbEntity
100
AcDbBlockBegin
2
*MODEL_SPACE
0
ENDBLK
5
21
100
AcDbEntity
100
AcDbBlockEnd
0
BLOCK
5
1C
100
AcDbEntity
100
AcDbBlockBegin
2
*PAPER_SPACE
0
ENDBLK
5
1D
100
AcDbEntity
100
AcDbBlockEnd
0
ENDSEC
0
SECTION
2
ENTITIES
0
POINT
5
100
100
AcDbEntity
8
0
100
AcDbPoint
10
0
20
0
30
0
0
POINT
5
101
100
AcDbEntity
8
0
100
AcDbPoint
10
0
20
0
30
0
0
POINT
5
102
100
AcDbEntity
8
0
100
AcDbPoint
10
0
20
0
30
0
0
POINT
5
103
100
AcDbEntity
8
0
100
AcDbPoint
10
0
20
0
30
0
0
POINT
5
104
100
AcDbEntity
8
0
100
AcDbPoint
10
0
20
0
30
0
0
POINT
5
105
100
AcDbEntity
8
0
100
AcDbPoint
10
0
20
0
30
0
0
POINT
5
106
100
AcDbEntity
8
0
100
AcDbPoint
10
0
20
0
30
0
0
POINT
5
107
100
AcDbEntity
8
0
100
AcDbPoint
10
0
20
0
30
0
0
POINT
5
108
100
AcDbEntity
8
0
100
AcDbPoint
10
0
20
0
30
0
0
LINE
5
109
100
AcDbEntity
8
0
100
AcDbLine
10
-250
20
-175
30
0
11
-250
21
-200
31
0
0
LINE
5
110
100
AcDbEntity
8
0
100
AcDbLine
10
350
20
-100
30
0
11
350
21
-200
31
0
0
ARC
5
111
100
AcDbEntity
8
0
100
AcDbCircle
10
675
20
75
30
0
40
25
210
-0
220
0
230
1
100
AcDbArc
50
-90
51
0
0
LINE
5
112
100
AcDbEntity
8
0
100
AcDbLine
10
1075
20
550
30
0
11
975
21
550
31
0
0
LINE
5
113
100
AcDbEntity
8
0
100
AcDbLine
10
700
20
425
30
0
11
700
21
325
31
0
0
LINE
5
114
100
AcDbEntity
8
0
100
AcDbLine
10
675
20
50
30
0
11
625
21
50
31
0
0
LINE
5
115
100
AcDbEntity
8
0
100
AcDbLine
10
900
20
550
30
0
11
800
21
550
31
0
0
LINE
5
116
100
AcDbEntity
8
0
100
AcDbLine
10
700
20
250
30
0
11
700
21
150
31
0
0
LINE
5
117
100
AcDbEntity
8
0
100
AcDbLine
10
600
20
550
30
0
11
600
21
300
31
0
0
LINE
5
118
100
AcDbEntity
8
0
100
AcDbLine
10
1100
20
650
30
0
11
700
21
650
31
0
0
ARC
5
119
100
AcDbEntity
8
0
100
AcDbCircle
10
550
20
200
30
0
40
50
210
-0
220
0
230
1
100
AcDbArc
50
-90
51
0
0
ARC
5
120
100
AcDbEntity
8
0
100
AcDbCircle
10
750
20
500
30
0
40
50
210
0
220
-0
230
1
100
AcDbArc
50
90
51
180
0
LINE
5
121
100
AcDbEntity
8
0
100
AcDbLine
10
750
20
-50
30
0
11
650
21
-50
31
0
0
ARC
5
122
100
AcDbEntity
8
0
100
AcDbCircle
10
700
20
550
30
0
40
100
210
0
220
-0
230
1
100
AcDbArc
50
90
51
180
0
LINE
5
123
100
AcDbEntity
8
0
100
AcDbLine
10
1100
20
450
30
0
11
850
21
450
31
0
0
LINE
5
124
100
AcDbEntity
8
0
100
AcDbLine
10
800
20
400
30
0
11
800
21
300
31
0
0
ARC
5
125
100
AcDbEntity
8
0
100
AcDbCircle
10
750
20
0
30
0
40
50
210
-0
220
0
230
1
100
AcDbArc
50
-90
51
0
0
ARC
5
126
100
AcDbEntity
8
0
100
AcDbCircle
10
850
20
400
30
0
40
50
210
0
220
-0
230
1
100
AcDbArc
50
90
51
180
0
LINE
5
127
100
AcDbEntity
8
0
100
AcDbLine
10
600
20
300
30
0
11
600
21
200
31
0
0
LINE
5
128
100
AcDbEntity
8
0
100
AcDbLine
10
800
20
300
30
0
11
800
21
0
31
0
0
LINE
5
129
100
AcDbEntity
8
0
100
AcDbLine
10
250
20
50
30
0
11
150
21
50
31
0
0
LINE
5
130
100
AcDbEntity
8
0
100
AcDbLine
10
-250
20
225
30
0
11
-250
21
125
31
0
0
LINE
5
131
100
AcDbEntity
8
0
100
AcDbLine
10
50
20
50
30
0
11
-50
21
50
31
0
0
LWPOLYLINE
5
132
100
AcDbEntity
8
0
100
AcDbPolyline
90
4
70
1
43
0.0
10
-150
20
150
10
250
20
150
10
250
20
360
10
-150
20
360
0
LINE
5
133
100
AcDbEntity
8
0
100
AcDbLine
10
350
20
150
30
0
11
350
21
50
31
0
0
LINE
5
134
100
AcDbEntity
8
0
100
AcDbLine
10
-350
20
1000
30
0
11
-350
21
-200
31
0
0
LINE
5
135
100
AcDbEntity
8
0
100
AcDbLine
10
350
20
350
30
0
11
350
21
250
31
0
0
LINE
5
136
100
AcDbEntity
8
0
100
AcDbLine
10
-250
20
25
30
0
11
-250
21
-75
31
0
0
LWPOLYLINE
5
137
100
AcDbEntity
8
0
100
AcDbPolyline
90
4
70
1
43
0.0
10
-80
20
420
10
-80
20
440
10
-150
20
440
10
-150
20
420
0
LINE
5
138
100
AcDbEntity
8
0
100
AcDbLine
10
450
20
1000
30
0
11
450
21
150
31
0
0
LWPOLYLINE
5
139
100
AcDbEntity
8
0
100
AcDbPolyline
90
4
70
1
43
0.0
10
-150
20
380
10
-80
20
380
10
-80
20
400
10
-150
20
400
0
LWPOLYLINE
5
140
100
AcDbEntity
8
0
100
AcDbPolyline
90
4
70
1
43
0.0
10
-170
20
360
10
-170
20
290
10
-150
20
290
10
-150
20
360
0
LWPOLYLINE
5
141
100
AcDbEntity
8
0
100
AcDbPolyline
90
4
70
1
43
0.0
10
-330
20
360
10
-310
20
360
10
-310
20
290
10
-330
20
290
0
LINE
5
142
100
AcDbEntity
8
0
100
AcDbLine
10
350
20
975
30
0
11
350
21
875
31
0
0
LWPOLYLINE
5
143
100
AcDbEntity
8
0
100
AcDbPolyline
90
4
70
1
43
0.0
10
-190
20
360
10
-190
20
290
10
-210
20
290
10
-210
20
360
0
LINE
5
144
100
AcDbEntity
8
0
100
AcDbLine
10
250
20
1000
30
0
11
250
21
550
31
0
0
LWPOLYLINE
5
145
100
AcDbEntity
8
0
100
AcDbPolyline
90
4
70
1
43
0.0
10
-150
20
560
10
-170
20
560
10
-170
20
630
10
-150
20
630
0
LWPOLYLINE
5
146
100
AcDbEntity
8
0
100
AcDbPolyline
90
4
70
1
43
0.0
10
-250
20
360
10
-250
20
290
10
-230
20
290
10
-230
20
360
0
LINE
5
147
100
AcDbEntity
8
0
100
AcDbLine
10
250
20
460
30
0
11
150
21
460
31
0
0
LINE
5
148
100
AcDbEntity
8
0
100
AcDbLine
10
350
20
550
30
0
11
350
21
450
31
0
0
LINE
5
149
100
AcDbEntity
8
0
100
AcDbLine
10
350
20
800
30
0
11
350
21
700
31
0
0
LINE
5
150
100
AcDbEntity
8
0
100
AcDbLine
10
-150
20
560
30
0
11
-150
21
1000
31
0
0
LWPOLYLINE
5
151
100
AcDbEntity
8
0
100
AcDbPolyline
90
4
70
1
43
0.0
10
-80
20
520
10
-150
20
520
10
-150
20
500
10
-80
20
500
0
LWPOLYLINE
5
152
100
AcDbEntity
8
0
100
AcDbPolyline
90
4
70
1
43
0.0
10
-290
20
290
10
-270
20
290
10
-270
20
360
10
-290
20
360
0
LWPOLYLINE
5
153
100
AcDbEntity
8
0
100
AcDbPolyline
90
4
70
1
43
0.0
10
-150
20
480
10
-150
20
460
10
-80
20
460
10
-80
20
480
0
LWPOLYLINE
5
154
100
AcDbEntity
8
0
100
AcDbPolyline
90
4
70
1
43
0.0
10
-330
20
630
10
-310
20
630
10
-310
20
560
10
-330
20
560
0
LINE
5
155
100
AcDbEntity
8
0
100
AcDbLine
10
-150
20
560
30
0
11
250
21
560
31
0
0
LWPOLYLINE
5
156
100
AcDbEntity
8
0
100
AcDbPolyline
90
4
70
1
43
0.0
10
-250
20
630
10
-230
20
630
10
-230
20
560
10
-250
20
560
0
LWPOLYLINE
5
157
100
AcDbEntity
8
0
100
AcDbPolyline
90
4
70
1
43
0.0
10
-80
20
540
10
-150
20
540
10
-150
20
560
10
-80
20
560
0
LINE
5
158
100
AcDbEntity
8
0
100
AcDbLine
10
-250
20
800
30
0
11
-250
21
700
31
0
0
LINE
5
159
100
AcDbEntity
8
0
100
AcDbLine
10
50
20
460
30
0
11
-50
21
460
31
0
0
LWPOLYLINE
5
160
100
AcDbEntity
8
0
100
AcDbPolyline
90
4
70
1
43
0.0
10
-190
20
630
10
-190
20
560
10
-210
20
560
10
-210
20
630
0
LWPOLYLINE
5
161
100
AcDbEntity
8
0
100
AcDbPolyline
90
4
70
1
43
0.0
10
-290
20
560
10
-290
20
630
10
-270
20
630
10
-270
20
560
0
LINE
5
162
100
AcDbEntity
8
0
100
AcDbLine
10
-250
20
975
30
0
11
-250
21
875
31
0
0
LINE
5
163
100
AcDbEntity
8
0
100
AcDbLine
10
250
20
-200
30
0
11
250
21
-50
31
0
0
LINE
5
164
100
AcDbEntity
8
0
100
AcDbLine
10
250
20
-50
30
0
11
-150
21
-50
31
0
0
LINE
5
165
100
AcDbEntity
8
0
100
AcDbLine
10
-150
20
-50
30
0
11
-150
21
-200
31
0
0
LINE
5
166
100
AcDbEntity
8
0
100
AcDbLine
10
450
20
-50
30
0
11
450
21
-200
31
0
0
LINE
5
167
100
AcDbEntity
8
0
100
AcDbLine
10
550
20
50
30
0
11
525
21
50
31
0
0
LINE
5
168
100
AcDbEntity
8
0
100
AcDbLine
10
500
20
50
30
0
11
450
21
50
31
0
0
LINE
5
169
100
AcDbEntity
8
0
100
AcDbLine
10
550
20
150
30
0
11
500
21
150
31
0
0
LINE
5
170
100
AcDbEntity
8
0
100
AcDbLine
10
450
20
150
30
0
11
475
21
150
31
0
0
LINE
5
171
100
AcDbEntity
8
0
100
AcDbLine
10
450
20
-50
30
0
11
475
21
-50
31
0
0
LINE
5
172
100
AcDbEntity
8
0
100
AcDbLine
10
500
20
-50
30
0
11
650
21
-50
31
0
0
LWPOLYLINE
5
173
100
AcDbEntity
8
0
100
AcDbPolyline
90
36
70
1
43
0.0
10
525
20
700
10
1100
20
700
10
1100
20
-200
10
525
20
-200
10
525
20
-100
10
500
20
-100
10
500
20
0
10
500
20
-100
10
500
20
0
10
525
20
0
10
525
20
99.90000000000002
10
525
20
0
10
525
20
99.90000000000002
10
500
20
99.90000000000002
10
500
20
200
10
500
20
99.90000000000002
10
500
20
200
10
525
20
200
10
525
20
299.90000000000003
10
500
20
299.90000000000003
10
500
20
375
10
500
20
299.90000000000003
10
525
20
299.90000000000003
10
500
20
299.90000000000003
10
500
20
375
10
525
20
375
10
525
20
465.10000000000002
10
500
20
465.10000000000002
10
500
20
565.20000000000005
10
525
20
565.20000000000005
10
525
20
614.89999999999998
10
500
20
614.89999999999998
10
500
20
664.95000000000005
10
525
20
664.95000000000005
10
525
20
674.95000000000005
10
525
20
684.95000000000005
0
LINE
5
174
100
AcDbEntity
8
0
100
AcDbLine
10
525
20
-200
30
0
11
525
21
-100.09999999999998
31
0
0
LWPOLYLINE
5
175
100
AcDbEntity
8
0
100
AcDbPolyline
90
4
70
1
43
0.0
10
400
20
374.99999999999994
10
475
20
374.99999999999994
10
400
20
374.99999999999994
10
400
20
400
0
LWPOLYLINE
5
176
100
AcDbEntity
8
0
100
AcDbPolyline
90
2
70
1
43
0.0
10
200
20
400
10
200
20
374.99999999999994
0
LINE
5
177
100
AcDbEntity
8
0
100
AcDbLine
10
350
20
350
30
0
11
350
21
250
31
0
0
LINE
5
178
100
AcDbEntity
8
0
100
AcDbLine
10
475
20
400
30
0
11
500
21
400
31
0
0
LINE
5
179
100
AcDbEntity
8
0
100
AcDbLine
10
525
20
299.90000000000003
30
0
11
525
21
200
31
0
0
LWPOLYLINE
5
180
100
AcDbEntity
8
0
100
AcDbPolyline
90
2
70
1
43
0.0
10
299.90000000000003
20
400
10
400
20
400
0
LWPOLYLINE
5
181
100
AcDbEntity
8
0
100
AcDbPolyline
90
4
70
1
43
0.0
10
-230
20
560
10
-250
20
560
10
-250
20
630
10
-230
20
630
0
LWPOLYLINE
5
182
100
AcDbEntity
8
0
100
AcDbPolyline
90
4
70
1
43
0.0
10
-190
20
560
10
-210
20
560
10
-210
20
630
10
-190
20
630
0
LWPOLYLINE
5
183
100
AcDbEntity
8
0
100
AcDbPolyline
90
4
70
1
43
0.0
10
-290
20
560
10
-290
20
630
10
-270
20
630
10
-270
20
560
0
LINE
5
184
100
AcDbEntity
8
0
100
AcDbLine
10
50
20
460
30
0
11
-50
21
460
31
0
0
LINE
5
185
100
AcDbEntity
8
0
100
AcDbLine
10
-250
20
800
30
0
11
-250
21
700
31
0
0
LINE
5
186
100
AcDbEntity
8
0
100
AcDbLine
10
500
20
1000
30
0
11
-400
21
1000
31
0
0
LINE
5
187
100
AcDbEntity
8
0
100
AcDbLine
10
-150
20
560
30
0
11
250
21
560
31
0
0
LWPOLYLINE
5
188
100
AcDbEntity
8
0
100
AcDbPolyline
90
2
70
1
43
0.0
10
500
20
0
10
525
20
0
0
LWPOLYLINE
5
189
100
AcDbEntity
8
0
100
AcDbPolyline
90
2
70
1
43
0.0
10
525
20
375
10
500
20
375
0
LWPOLYLINE
5
190
100
AcDbEntity
8
0
100
AcDbPolyline
90
2
70
1
43
0.0
10
500
20
99.90000000000002
10
525
20
99.90000000000002
0
LINE
5
191
100
AcDbEntity
8
0
100
AcDbLine
10
550
20
50
30
0
11
525
21
50
31
0
0
LINE
5
192
100
AcDbEntity
8
0
100
AcDbLine
10
500
20
375
30
0
11
500
21
299.90000000000003
31
0
0
LWPOLYLINE
5
193
100
AcDbEntity
8
0
100
AcDbPolyline
90
2
70
1
43
0.0
10
500
20
-100
10
525
20
-100.09999999999998
0
LWPOLYLINE
5
194
100
AcDbEntity
8
0
100
AcDbPolyline
90
2
70
1
43
0.0
10
525
20
200
10
500
20
200
0
LWPOLYLINE
5
195
100
AcDbEntity
8
0
100
AcDbPolyline
90
2
70
1
43
0.0
10
525
20
299.90000000000003
10
525
20
200
0
LWPOLYLINE
5
196
100
AcDbEntity
8
0
100
AcDbPolyline
90
4
70
1
43
0.0
10
-150
20
520
10
-150
20
500
10
-80
20
500
10
-80
20
520
0
LWPOLYLINE
5
197
100
AcDbEntity
8
0
100
AcDbPolyline
90
4
70
1
43
0.0
10
-330
20
560
10
-330
20
630
10
-310
20
630
10
-310
20
560
0
LWPOLYLINE
5
198
100
AcDbEntity
8
0
100
AcDbPolyline
90
4
70
1
43
0.0
10
-170
20
560
10
-170
20
630
10
-150
20
630
10
-150
20
560
0
LWPOLYLINE
5
199
100
AcDbEntity
8
0
100
AcDbPolyline
90
4
70
1
43
0.0
10
-80
20
440
10
-150
20
440
10
-150
20
420
10
-80
20
420
0
LWPOLYLINE
5
200
100
AcDbEntity
8
0
100
AcDbPolyline
90
4
70
1
43
0.0
10
-80
20
560
10
-80
20
540
10
-150
20
540
10
-150
20
560
0
LWPOLYLINE
5
201
100
AcDbEntity
8
0
100
AcDbPolyline
90
4
70
1
43
0.0
10
-150
20
460
10
-80
20
460
10
-80
20
480
10
-150
20
480
0
LINE
5
202
100
AcDbEntity
8
0
100
AcDbLine
10
-150
20
560
30
0
11
-150
21
1000
31
0
0
LINE
5
203
100
AcDbEntity
8
0
100
AcDbLine
10
500
20
-50
30
0
11
650
21
-50
31
0
0
LINE
5
204
100
AcDbEntity
8
0
100
AcDbLine
10
350
20
975
30
0
11
350
21
875
31
0
0
LINE
5
205
100
AcDbEntity
8
0
100
AcDbLine
10
475
20
700
30
0
11
500
21
700
31
0
0
LINE
5
206
100
AcDbEntity
8
0
100
AcDbLine
10
250
20
1000
30
0
11
250
21
550
31
0
0
LINE
5
207
100
AcDbEntity
8
0
100
AcDbLine
10
500
20
1000
30
0
11
500
21
700
31
0
0
LINE
5
208
100
AcDbEntity
8
0
100
AcDbLine
10
475
20
500.09999999999997
30
0
11
475
21
600
31
0
0
LINE
5
209
100
AcDbEntity
8
0
100
AcDbLine
10
475
20
650.10000000000002
30
0
11
475
21
700
31
0
0
LINE
5
210
100
AcDbEntity
8
0
100
AcDbLine
10
500
20
600
30
0
11
500
21
650.10000000000002
31
0
0
LINE
5
211
100
AcDbEntity
8
0
100
AcDbLine
10
475
20
500.09999999999997
30
0
11
500
21
500.09999999999997
31
0
0
LINE
5
212
100
AcDbEntity
8
0
100
AcDbLine
10
250
20
460
30
0
11
150
21
460
31
0
0
LINE
5
213
100
AcDbEntity
8
0
100
AcDbLine
10
350
20
800
30
0
11
350
21
700
31
0
0
LINE
5
214
100
AcDbEntity
8
0
100
AcDbLine
10
475
20
600
30
0
11
500
21
600
31
0
0
LINE
5
215
100
AcDbEntity
8
0
100
AcDbLine
10
475
20
650.10000000000002
30
0
11
500
21
650.10000000000002
31
0
0
LINE
5
216
100
AcDbEntity
8
0
100
AcDbLine
10
350
20
550
30
0
11
350
21
450
31
0
0
LINE
5
217
100
AcDbEntity
8
0
100
AcDbLine
10
550
20
150
30
0
11
500
21
150
31
0
0
LINE
5
218
100
AcDbEntity
8
0
100
AcDbLine
10
-250
20
975
30
0
11
-250
21
875
31
0
0
LWPOLYLINE
5
219
100
AcDbEntity
8
0
100
AcDbPolyline
90
4
70
1
43
0.0
10
475
20
-99.900000000000006
10
500
20
-99.900000000000006
10
475
20
-99.900000000000006
10
475
20
0
0
LINE
5
220
100
AcDbEntity
8
0
100
AcDbLine
10
-150
20
-50
30
0
11
-150
21
-200
31
0
0
LINE
5
221
100
AcDbEntity
8
0
100
AcDbLine
10
1100
20
650
30
0
11
700
21
650
31
0
0
LWPOLYLINE
5
222
100
AcDbEntity
8
0
100
AcDbPolyline
90
2
70
1
43
0.0
10
-200
20
375
10
-100.09999999999998
20
375
0
LWPOLYLINE
5
223
100
AcDbEntity
8
0
100
AcDbPolyline
90
4
70
1
43
0.0
10
-150
20
360
10
250
20
360
10
250
20
150
10
-150
20
150
0
LWPOLYLINE
5
224
100
AcDbEntity
8
0
100
AcDbPolyline
90
2
70
1
43
0.0
10
500
20
-99.900000000000006
10
500
20
-200
0
LINE
5
225
100
AcDbEntity
8
0
100
AcDbLine
10
350
20
150
30
0
11
350
21
50
31
0
0
LWPOLYLINE
5
226
100
AcDbEntity
8
0
100
AcDbPolyline
90
4
70
1
43
0.0
10
-170
20
290
10
-150
20
290
10
-150
20
360
10
-170
20
360
0
LINE
5
227
100
AcDbEntity
8
0
100
AcDbLine
10
1075
20
550
30
0
11
975
21
550
31
0
0
LWPOLYLINE
5
228
100
AcDbEntity
8
0
100
AcDbPolyline
90
2
70
1
43
0.0
10
500
20
0
10
475
20
0
0
LINE
5
229
100
AcDbEntity
8
0
100
AcDbLine
10
750
20
-50
30
0
11
650
21
-50
31
0
0
LWPOLYLINE
5
230
100
AcDbEntity
8
0
100
AcDbPolyline
90
4
70
1
43
0.0
10
-150
20
380
10
-80
20
380
10
-80
20
400
10
-150
20
400
0
LINE
5
231
100
AcDbEntity
8
0
100
AcDbLine
10
600
20
300
30
0
11
600
21
200
31
0
0
LINE
5
232
100
AcDbEntity
8
0
100
AcDbLine
10
-250
20
-175
30
0
11
-250
21
-200
31
0
0
LWPOLYLINE
5
233
100
AcDbEntity
8
0
100
AcDbPolyline
90
10
70
1
43
0.0
10
200
20
400
10
99.90000000000002
20
400
10
99.90000000000002
20
374.99999999999994
10
0
20
375
10
1.7763568394002505e-14
20
400
10
-100.09999999999998
20
400
10
1.7763568394002505e-14
20
400
10
0
20
375
10
99.90000000000002
20
374.99999999999994
10
99.90000000000002
20
400
0
LWPOLYLINE
5
234
100
AcDbEntity
8
0
100
AcDbPolyline
90
2
70
1
43
0.0
10
500
20
-200
10
-400
20
-200
0
LWPOLYLINE
5
235
100
AcDbEntity
8
0
100
AcDbPolyline
90
2
70
1
43
0.0
10
500
20
200
10
475
20
200
0
LINE
5
236
100
AcDbEntity
8
0
100
AcDbLine
10
100.10000000000002
20
425
30
0
11
200
21
425
31
0
0
LINE
5
237
100
AcDbEntity
8
0
100
AcDbLine
10
-250
20
225
30
0
11
-250
21
125
31
0
0
LINE
5
238
100
AcDbEntity
8
0
100
AcDbLine
10
250
20
-50
30
0
11
-150
21
-50
31
0
0
LINE
5
239
100
AcDbEntity
8
0
100
AcDbLine
10
450
20
-50
30
0
11
450
21
-200
31
0
0
LINE
5
240
100
AcDbEntity
8
0
100
AcDbLine
10
250
20
50
30
0
11
150
21
50
31
0
0
LINE
5
241
100
AcDbEntity
8
0
100
AcDbLine
10
675
20
50
30
0
11
625
21
50
31
0
0
ARC
5
242
100
AcDbEntity
8
0
100
AcDbCircle
10
750
20
500
30
0
40
50
210
0
220
-0
230
1
100
AcDbArc
50
90
51
180
0
LINE
5
243
100
AcDbEntity
8
0
100
AcDbLine
10
-80
20
400
30
0
11
-150
21
400
31
0
0
LWPOLYLINE
5
244
100
AcDbEntity
8
0
100
AcDbPolyline
90
4
70
1
43
0.0
10
-210
20
360
10
-190
20
360
10
-190
20
290
10
-210
20
290
0
LWPOLYLINE
5
245
100
AcDbEntity
8
0
100
AcDbPolyline
90
4
70
1
43
0.0
10
-299.90000000000003
20
400
10
-200
20
400
10
-200
20
375
10
-200
20
400
0
ARC
5
246
100
AcDbEntity
8
0
100
AcDbCircle
10
750
20
0
30
0
40
50
210
-0
220
0
230
1
100
AcDbArc
50
-90
51
0
0
LWPOLYLINE
5
247
100
AcDbEntity
8
0
100
AcDbPolyline
90
2
70
1
43
0.0
10
-100.09999999999998
20
400
10
-100.09999999999998
20
375
0
LINE
5
248
100
AcDbEntity
8
0
100
AcDbLine
10
450
20
150
30
0
11
475
21
150
31
0
0
LWPOLYLINE
5
249
100
AcDbEntity
8
0
100
AcDbPolyline
90
2
70
1
43
0.0
10
475
20
200
10
475
20
100.09999999999999
0
LINE
5
250
100
AcDbEntity
8
0
100
AcDbLine
10
450
20
-50
30
0
11
475
21
-50
31
0
0
LINE
5
251
100
AcDbEntity
8
0
100
AcDbLine
10
-99.900000000000006
20
400
30
0
11
-200
21
400
31
0
0
ARC
5
252
100
AcDbEntity
8
0
100
AcDbCircle
10
675
20
75
30
0
40
25
210
-0
220
0
230
1
100
AcDbArc
50
-90
51
0
0
LWPOLYLINE
5
253
100
AcDbEntity
8
0
100
AcDbPolyline
90
2
70
1
43
0.0
10
475
20
100.09999999999999
10
500
20
100.09999999999999
0
LINE
5
254
100
AcDbEntity
8
0
100
AcDbLine
10
-99.900000000000006
20
425
30
0
11
-99.900000000000006
21
400
31
0
0
LINE
5
255
100
AcDbEntity
8
0
100
AcDbLine
10
500
20
50
30
0
11
450
21
50
31
0
0
LWPOLYLINE
5
256
100
AcDbEntity
8
0
100
AcDbPolyline
90
6
70
1
43
0.0
10
-300.09999999999997
20
400
10
-300.09999999999997
20
375
10
-400
20
375
10
-400
20
-200
10
-400
20
375
10
-300.09999999999997
20
375
0
LWPOLYLINE
5
257
100
AcDbEntity
8
0
100
AcDbPolyline
90
4
70
1
43
0.0
10
-290
20
360
10
-290
20
290
10
-270
20
290
10
-270
20
360
0
LINE
5
258
100
AcDbEntity
8
0
100
AcDbLine
10
-99.900000000000006
20
425
30
0
11
1.7763568394002505e-14
21
425
31
0
0
LWPOLYLINE
5
259
100
AcDbEntity
8
0
100
AcDbPolyline
90
4
70
1
43
0.0
10
-330
20
290
10
-330
20
360
10
-310
20
360
10
-310
20
290
0
LINE
5
260
100
AcDbEntity
8
0
100
AcDbLine
10
-299.90000000000003
20
400
30
0
11
-300.09999999999997
21
375
31
0
0
LINE
5
261
100
AcDbEntity
8
0
100
AcDbLine
10
100.10000000000002
20
425
30
0
11
100.10000000000002
21
400
31
0
0
LWPOLYLINE
5
262
100
AcDbEntity
8
0
100
AcDbPolyline
90
4
70
1
43
0.0
10
-250
20
290
10
-230
20
290
10
-230
20
360
10
-250
20
360
0
LINE
5
263
100
AcDbEntity
8
0
100
AcDbLine
10
-299.90000000000003
20
425
30
0
11
-200
21
425
31
0
0
LWPOLYLINE
5
264
100
AcDbEntity
8
0
100
AcDbPolyline
90
2
70
1
43
0.0
10
-200
20
425
10
-200
20
400
0
LINE
5
265
100
AcDbEntity
8
0
100
AcDbLine
10
-299.90000000000003
20
400
30
0
11
-400
21
400
31
0
0
LINE
5
266
100
AcDbEntity
8
0
100
AcDbLine
10
-299.90000000000003
20
400
30
0
11
-200
21
400
31
0
0
LINE
5
267
100
AcDbEntity
8
0
100
AcDbLine
10
-400
20
375
30
0
11
-300.09999999999997
21
375
31
0
0
LINE
5
268
100
AcDbEntity
8
0
100
AcDbLine
10
-299.90000000000003
20
425
30
0
11
-299.90000000000003
21
400
31
0
0
LINE
5
269
100
AcDbEntity
8
0
100
AcDbLine
10
-300.09999999999997
20
400
30
0
11
-400
21
400
31
0
0
LWPOLYLINE
5
270
100
AcDbEntity
8
0
100
AcDbPolyline
90
2
70
1
43
0.0
10
200
20
374.99999999999994
10
299.90000000000003
20
374.99999999999994
0
LINE
5
271
100
AcDbEntity
8
0
100
AcDbLine
10
525
20
200
30
0
11
500
21
200
31
0
0
LWPOLYLINE
5
272
100
AcDbEntity
8
0
100
AcDbPolyline
90
6
70
1
43
0.0
10
475
20
374.99999999999994
10
475
20
300.09999999999997
10
500
20
300.09999999999997
10
500
20
200
10
500
20
300.09999999999997
10
475
20
300.09999999999997
0
LINE
5
273
100
AcDbEntity
8
0
100
AcDbLine
10
400
20
425
30
0
11
400
21
400
31
0
0
LINE
5
274
100
AcDbEntity
8
0
100
AcDbLine
10
300.09999999999997
20
400
30
0
11
200
21
400
31
0
0
LINE
5
275
100
AcDbEntity
8
0
100
AcDbLine
10
500
20
400
30
0
11
400
21
400
31
0
0
LINE
5
276
100
AcDbEntity
8
0
100
AcDbLine
10
525
20
-200
30
0
11
525
21
-100.09999999999998
31
0
0
LINE
5
277
100
AcDbEntity
8
0
100
AcDbLine
10
525
20
-200
30
0
11
1100
21
-200
31
0
0
LWPOLYLINE
5
278
100
AcDbEntity
8
0
100
AcDbPolyline
90
2
70
1
43
0.0
10
299.90000000000003
20
374.99999999999994
10
299.90000000000003
20
400
0
LINE
5
279
100
AcDbEntity
8
0
100
AcDbLine
10
500
20
400
30
0
11
500
21
500.09999999999997
31
0
0
LINE
5
280
100
AcDbEntity
8
0
100
AcDbLine
10
200
20
425
30
0
11
200
21
400
31
0
0
LINE
5
281
100
AcDbEntity
8
0
100
AcDbLine
10
-350
20
1000
30
0
11
-350
21
-200
31
0
0
LINE
5
282
100
AcDbEntity
8
0
100
AcDbLine
10
300.09999999999997
20
425
30
0
11
300.09999999999997
21
400
31
0
0
LINE
5
283
100
AcDbEntity
8
0
100
AcDbLine
10
300.09999999999997
20
425
30
0
11
400
21
425
31
0
0
LINE
5
284
100
AcDbEntity
8
0
100
AcDbLine
10
450
20
1000
30
0
11
450
21
150
31
0
0
ARC
5
285
100
AcDbEntity
8
0
100
AcDbCircle
10
550
20
200
30
0
40
50
210
-0
220
0
230
1
100
AcDbArc
50
-90
51
0
0
LINE
5
286
100
AcDbEntity
8
0
100
AcDbLine
10
800
20
400
30
0
11
800
21
300
31
0
0
LINE
5
287
100
AcDbEntity
8
0
100
AcDbLine
10
1100
20
450
30
0
11
850
21
450
31
0
0
LINE
5
288
100
AcDbEntity
8
0
100
AcDbLine
10
500
20
99.90000000000002
30
0
11
500
21
200
31
0
0
LINE
5
289
100
AcDbEntity
8
0
100
AcDbLine
10
700
20
425
30
0
11
700
21
325
31
0
0
LWPOLYLINE
5
290
100
AcDbEntity
8
0
100
AcDbPolyline
90
2
70
1
43
0.0
10
500
20
100.09999999999999
10
500
20
0
0
LINE
5
291
100
AcDbEntity
8
0
100
AcDbLine
10
-250
20
25
30
0
11
-250
21
-75
31
0
0
LINE
5
292
100
AcDbEntity
8
0
100
AcDbLine
10
600
20
550
30
0
11
600
21
300
31
0
0
ARC
5
293
100
AcDbEntity
8
0
100
AcDbCircle
10
700
20
550
30
0
40
100
210
0
220
-0
230
1
100
AcDbArc
50
90
51
180
0
LINE
5
294
100
AcDbEntity
8
0
100
AcDbLine
10
250
20
-200
30
0
11
250
21
-50
31
0
0
LINE
5
295
100
AcDbEntity
8
0
100
AcDbLine
10
900
20
550
30
0
11
800
21
550
31
0
0
LINE
5
296
100
AcDbEntity
8
0
100
AcDbLine
10
100.10000000000002
20
400
30
0
11
1.7763568394002505e-14
21
400
31
0
0
LINE
5
297
100
AcDbEntity
8
0
100
AcDbLine
10
800
20
300
30
0
11
800
21
0
31
0
0
ARC
5
298
100
AcDbEntity
8
0
100
AcDbCircle
10
850
20
400
30
0
40
50
210
0
220
-0
230
1
100
AcDbArc
50
90
51
180
0
LINE
5
299
100
AcDbEntity
8
0
100
AcDbLine
10
1100
20
-200
30
0
11
1100
21
700
31
0
0
LINE
5
300
100
AcDbEntity
8
0
100
AcDbLine
10
-400
20
1000
30
0
11
-400
21
400
31
0
0
LINE
5
301
100
AcDbEntity
8
0
100
AcDbLine
10
700
20
250
30
0
11
700
21
150
31
0
0
LINE
5
302
100
AcDbEntity
8
0
100
AcDbLine
10
1.7763568394002505e-14
20
425
30
0
11
1.7763568394002505e-14
21
400
31
0
0
LINE
5
303
100
AcDbEntity
8
0
100
AcDbLine
10
350
20
-100
30
0
11
350
21
-200
31
0
0
LINE
5
304
100
AcDbEntity
8
0
100
AcDbLine
10
50
20
50
30
0
11
-50
21
50
31
0
0
ENDSEC
0
SECTION
2
OBJECTS
0
DICTIONARY
5
C
100
AcDbDictionary
3
ACAD_GROUP
350
D
3
ACAD_MLINESTYLE
350
17
0
DICTIONARY
5
D
100
AcDbDictionary
0
DICTIONARY
5
1A
330
C
100
AcDbDictionary
0
DICTIONARY
5
17
100
AcDbDictionary
0
ENDSEC
0
EOF
