0
SECTION
2
HEADER
9
$INSUNITS
70
4
9
$ACADVER
1
AC1014
9
$HANDSEED
5
FFFF
0
ENDSEC
0
SECTION
2
TABLES
0
TABLE
2
VPORT
5
8
100
AcDbSymbolTable
0
ENDTAB
0
TABLE
2
LTYPE
5
5
100
AcDbSymbolTable
0
LTYPE
5
14
100
AcDbSymbolTableRecord
100
AcDbLinetypeTableRecord
2
BYBLOCK
70
0
0
LTYPE
5
15
100
AcDbSymbolTableRecord
100
AcDbLinetypeTableRecord
2
BYLAYER
70
0
0
LTYPE
5
16
100
AcDbSymbolTableRecord
100
AcDbLinetypeTableRecord
2
DASHED
70
0
3
Dashed __ __ __ __ __ __ __ __ __ __ __ __ __ _
72
65
73
2
40
0.75
49
0.5
74
0
49
-0.25
74
0
0
ENDTAB
0
TABLE
2
LAYER
5
2
100
AcDbSymbolTable
70
2
0
LAYER
5
50
100
AcDbSymbolTableRecord
100
AcDbLayerTableRecord
2
0
70
0
62
7
6
CONTINUOUS
0
ENDTAB
0
TABLE
2
STYLE
5
3
100
AcDbSymbolTable
70
1
0
STYLE
5
11
100
AcDbSymbolTableRecord
100
AcDbTextStyleTableRecord
2
STANDARD
70
0
0
ENDTAB
0
TABLE
2
VIEW
5
6
100
AcDbSymbolTable
70
0
0
ENDTAB
0
TABLE
2
UCS
5
7
100
AcDbSymbolTable
70
0
0
ENDTAB
0
TABLE
2
APPID
5
9
100
AcDbSymbolTable
70
2
0
APPID
5
12
100
AcDbSymbolTableRecord
100
AcDbRegAppTableRecord
2
ACAD
70
0
0
ENDTAB
0
TABLE
2
DIMSTYLE
5
A
100
AcDbSymbolTable
70
1
0
ENDTAB
0
TABLE
2
BLOCK_RECORD
5
1
100
AcDbSymbolTable
70
1
0
BLOCK_RECORD
5
1F
100
AcDbSymbolTableRecord
100
AcDbBlockTableRecord
2
*MODEL_SPACE
0
BLOCK_RECORD
5
1B
100
AcDbSymbolTableRecord
100
AcDbBlockTableRecord
2
*PAPER_SPACE
0
ENDTAB
0
ENDSEC
0
SECTION
2
BLOCKS
0
BLOCK
5
20
100
AcDbEntity
100
AcDbBlockBegin
2
*MODEL_SPACE
0
ENDBLK
5
21
100
AcDbEntity
100
AcDbBlockEnd
0
BLOCK
5
1C
100
AcDbEntity
100
AcDbBlockBegin
2
*PAPER_SPACE
0
ENDBLK
5
1D
100
AcDbEntity
100
AcDbBlockEnd
0
ENDSEC
0
SECTION
2
ENTITIES
0
POINT
5
100
100
AcDbEntity
8
0
100
AcDbPoint
10
0
20
0
30
0
0
POINT
5
101
100
AcDbEntity
8
0
100
AcDbPoint
10
0
20
0
30
0
0
POINT
5
102
100
AcDbEntity
8
0
100
AcDbPoint
10
0
20
0
30
0
0
POINT
5
103
100
AcDbEntity
8
0
100
AcDbPoint
10
0
20
0
30
0
0
POINT
5
104
100
AcDbEntity
8
0
100
AcDbPoint
10
0
20
0
30
0
0
LINE
5
105
100
AcDbEntity
8
0
100
AcDbLine
10
475
20
400
30
0
11
500
21
400
31
0
0
LINE
5
106
100
AcDbEntity
8
0
100
AcDbLine
10
475
20
200
30
0
11
500
21
200
31
0
0
LINE
5
107
100
AcDbEntity
8
0
100
AcDbLine
10
475
20
300.09999999999997
30
0
11
500
21
300.09999999999997
31
0
0
LINE
5
108
100
AcDbEntity
8
0
100
AcDbLine
10
475
20
0
30
0
11
500
21
0
31
0
0
LINE
5
109
100
AcDbEntity
8
0
100
AcDbLine
10
475
20
100.09999999999999
30
0
11
500
21
100.09999999999999
31
0
0
LINE
5
110
100
AcDbEntity
8
0
100
AcDbLine
10
350
20
150
30
0
11
350
21
50
31
0
0
LINE
5
111
100
AcDbEntity
8
0
100
AcDbLine
10
299.90000000000003
20
374.99999999999994
30
0
11
299.90000000000003
21
400
31
0
0
LINE
5
112
100
AcDbEntity
8
0
100
AcDbLine
10
200
20
374.99999999999994
30
0
11
299.90000000000003
21
374.99999999999994
31
0
0
LINE
5
113
100
AcDbEntity
8
0
100
AcDbLine
10
350
20
350
30
0
11
350
21
250
31
0
0
LINE
5
114
100
AcDbEntity
8
0
100
AcDbLine
10
475
20
300.09999999999997
30
0
11
475
21
400
31
0
0
LWPOLYLINE
5
115
100
AcDbEntity
8
0
100
AcDbPolyline
90
4
70
1
43
0.0
10
-150
20
360
10
250
20
360
10
250
20
150
10
-150
20
150
0
LINE
5
116
100
AcDbEntity
8
0
100
AcDbLine
10
-250
20
-175
30
0
11
-250
21
-200
31
0
0
LINE
5
117
100
AcDbEntity
8
0
100
AcDbLine
10
250
20
360
30
0
11
250
21
150
31
0
0
LINE
5
118
100
AcDbEntity
8
0
100
AcDbLine
10
200
20
374.99999999999994
30
0
11
200
21
400
31
0
0
LINE
5
119
100
AcDbEntity
8
0
100
AcDbLine
10
250
20
-50
30
0
11
-150
21
-50
31
0
0
LINE
5
120
100
AcDbEntity
8
0
100
AcDbLine
10
-250
20
25
30
0
11
-250
21
-75
31
0
0
LINE
5
121
100
AcDbEntity
8
0
100
AcDbLine
10
250
20
-200
30
0
11
250
21
-50
31
0
0
LINE
5
122
100
AcDbEntity
8
0
100
AcDbLine
10
0
20
375
30
0
11
99.90000000000002
21
374.99999999999994
31
0
0
LINE
5
123
100
AcDbEntity
8
0
100
AcDbLine
10
-100.09999999999998
20
375
30
0
11
-100.09999999999998
21
400
31
0
0
LINE
5
124
100
AcDbEntity
8
0
100
AcDbLine
10
-250
20
225
30
0
11
-250
21
125
31
0
0
LINE
5
125
100
AcDbEntity
8
0
100
AcDbLine
10
0
20
375
30
0
11
1.7763568394002505e-14
21
400
31
0
0
LWPOLYLINE
5
126
100
AcDbEntity
8
0
100
AcDbPolyline
90
4
70
1
43
0.0
10
-250
20
360
10
-250
20
290
10
-230
20
290
10
-230
20
360
0
LINE
5
127
100
AcDbEntity
8
0
100
AcDbLine
10
250
20
50
30
0
11
150
21
50
31
0
0
LWPOLYLINE
5
128
100
AcDbEntity
8
0
100
AcDbPolyline
90
4
70
1
43
0.0
10
-170
20
290
10
-150
20
290
10
-150
20
360
10
-170
20
360
0
LINE
5
129
100
AcDbEntity
8
0
100
AcDbLine
10
-150
20
-50
30
0
11
-150
21
-200
31
0
0
LINE
5
130
100
AcDbEntity
8
0
100
AcDbLine
10
99.90000000000002
20
374.99999999999994
30
0
11
99.90000000000002
21
400
31
0
0
LINE
5
131
100
AcDbEntity
8
0
100
AcDbLine
10
50
20
50
30
0
11
-50
21
50
31
0
0
LINE
5
132
100
AcDbEntity
8
0
100
AcDbLine
10
-200
20
375
30
0
11
-100.09999999999998
21
375
31
0
0
LWPOLYLINE
5
133
100
AcDbEntity
8
0
100
AcDbPolyline
90
4
70
1
43
0.0
10
-190
20
290
10
-210
20
290
10
-210
20
360
10
-190
20
360
0
LWPOLYLINE
5
134
100
AcDbEntity
8
0
100
AcDbPolyline
90
4
70
1
43
0.0
10
-290
20
360
10
-290
20
290
10
-270
20
290
10
-270
20
360
0
LINE
5
135
100
AcDbEntity
8
0
100
AcDbLine
10
-400
20
375
30
0
11
-300.09999999999997
21
375
31
0
0
LWPOLYLINE
5
136
100
AcDbEntity
8
0
100
AcDbPolyline
90
4
70
1
43
0.0
10
-310
20
360
10
-310
20
290
10
-330
20
290
10
-330
20
360
0
LINE
5
137
100
AcDbEntity
8
0
100
AcDbLine
10
-300.09999999999997
20
375
30
0
11
-300.09999999999997
21
400
31
0
0
LINE
5
138
100
AcDbEntity
8
0
100
AcDbLine
10
-200
20
400
30
0
11
-200
21
375
31
0
0
LINE
5
139
100
AcDbEntity
8
0
100
AcDbLine
10
-400
20
375
30
0
11
-400
21
400
31
0
0
LINE
5
140
100
AcDbEntity
8
0
100
AcDbLine
10
350
20
-100
30
0
11
350
21
-200
31
0
0
LINE
5
141
100
AcDbEntity
8
0
100
AcDbLine
10
475
20
-99.900000000000006
30
0
11
475
21
0
31
0
0
LINE
5
142
100
AcDbEntity
8
0
100
AcDbLine
10
475
20
-99.900000000000006
30
0
11
500
21
-99.900000000000006
31
0
0
LINE
5
143
100
AcDbEntity
8
0
100
AcDbLine
10
475
20
100.09999999999999
30
0
11
475
21
200
31
0
0
LINE
5
144
100
AcDbEntity
8
0
100
AcDbLine
10
450
20
-50
30
0
11
450
21
-200
31
0
0
LINE
5
145
100
AcDbEntity
8
0
100
AcDbLine
10
450
20
-50
30
0
11
500
21
-50
31
0
0
LINE
5
146
100
AcDbEntity
8
0
100
AcDbLine
10
450
20
150
30
0
11
500
21
150
31
0
0
LINE
5
147
100
AcDbEntity
8
0
100
AcDbLine
10
450
20
150
30
0
11
450
21
400
31
0
0
LINE
5
148
100
AcDbEntity
8
0
100
AcDbLine
10
-150
20
150
30
0
11
-150
21
360
31
0
0
LINE
5
149
100
AcDbEntity
8
0
100
AcDbLine
10
-350.04999999999967
20
375.00000000000023
30
0
11
-350
21
-200
31
0
0
ENDSEC
0
SECTION
2
OBJECTS
0
DICTIONARY
5
C
100
AcDbDictionary
3
ACAD_GROUP
350
D
3
ACAD_MLINESTYLE
350
17
0
DICTIONARY
5
D
100
AcDbDictionary
0
DICTIONARY
5
1A
330
C
100
AcDbDictionary
0
DICTIONARY
5
17
100
AcDbDictionary
0
ENDSEC
0
EOF
